<svg height="159" viewBox="0 0 159 159" width="159" xmlns="http://www.w3.org/2000/svg"><path d="m69.091011 113.81485c-12.634922-12.634918-12.634922-33.120178 0-45.755089" fill="none" stroke="#fff" stroke-linecap="round" stroke-width="10"/><path d="m50.956394 131.949493c-22.650421-22.650405-22.650421-59.37397 0-82.024376" fill="none" stroke="#fff" stroke-linecap="round" stroke-width="10"/><path d="m89.611839 105.654381c-4.254448-.71093-9.115417-4.509522-11.075828-8.655022-6.395455-13.522926 8.006553-27.667267 21.252304-20.871521 1.272232.652725 2.396469 1.05262 2.498428.88868.101906-.163758.094574-3.392815-.015289-7.17537-.650955-22.195503-.989136-43.916999-.738724-47.447456l.280754-3.957977 4.096794 6.926529c2.253235 3.809631 4.917046 8.188171 5.91964 9.7304 2.599121 3.997307 6.621597 7.858871 12.015007 11.533874 2.914902 1.986382 4.396561 3.182923 4.122932 3.329605-1.061462.568955-7.946655 1.682846-9.083549 1.469544-3.219437-.604004-6.523697-3.813225-9.77021-9.488999-.49289-.861702-1.029198-1.566787-1.191864-1.566787-.162636 0-.416138.705085-.563309 1.566787-.462883 2.710228-.234673 22.560296.385849 33.560418.80767 14.317962.814117 17.035148.04541 19.295112-2.687553 7.902718-9.941483 12.238037-18.176659 10.86155z" fill="#fff"/></svg>